<svg width="8" height="13" viewBox="0 0 8 13" fill="none" xmlns="http://www.w3.org/2000/svg">
<path d="M7.37305 6.60179C7.37305 6.50357 7.32394 6.39308 7.25028 6.31942L1.5293 0.59844C1.45564 0.52478 1.34515 0.475672 1.24693 0.475672C1.14872 0.475672 1.03823 0.52478 0.964565 0.59844L0.350725 1.21228C0.277065 1.28594 0.227958 1.39643 0.227958 1.49465C0.227958 1.59286 0.277065 1.70335 0.350725 1.77701L5.1755 6.60179L0.350725 11.4266C0.277065 11.5002 0.227958 11.6107 0.227958 11.7089C0.227958 11.8194 0.277065 11.9176 0.350725 11.9913L0.964565 12.6051C1.03823 12.6788 1.14872 12.7279 1.24693 12.7279C1.34515 12.7279 1.45564 12.6788 1.5293 12.6051L7.25028 6.88416C7.32394 6.81049 7.37305 6.7 7.37305 6.60179Z" fill="white"/>
</svg>
