<svg width="8" height="13" viewBox="0 0 8 13" fill="none" xmlns="http://www.w3.org/2000/svg">
<path d="M7.7659 1.49465C7.7659 1.38416 7.7168 1.28594 7.64314 1.21228L7.0293 0.59844C6.95564 0.52478 6.84515 0.475672 6.74693 0.475672C6.64872 0.475672 6.53823 0.52478 6.46456 0.59844L0.743583 6.31942C0.669922 6.39308 0.620815 6.50357 0.620815 6.60179C0.620815 6.7 0.669922 6.81049 0.743583 6.88416L6.46456 12.6051C6.53823 12.6788 6.64872 12.7279 6.74693 12.7279C6.84515 12.7279 6.95564 12.6788 7.0293 12.6051L7.64314 11.9913C7.7168 11.9176 7.7659 11.8071 7.7659 11.7089C7.7659 11.6107 7.7168 11.5002 7.64314 11.4266L2.81836 6.60179L7.64314 1.77701C7.7168 1.70335 7.7659 1.59286 7.7659 1.49465Z" fill="white"/>
</svg>
