<svg width="101" height="101" viewBox="0 0 101 101" fill="none" xmlns="http://www.w3.org/2000/svg">
<circle cx="50.9287" cy="50.7271" r="50" fill="white"/>
<path d="M46.8037 62.6646L36.3662 52.2896C36.0745 51.9979 35.9287 51.6229 35.9287 51.1646C35.9287 50.7062 36.0745 50.3312 36.3662 50.0396L38.6787 47.7896C38.9704 47.4562 39.3245 47.2896 39.7412 47.2896C40.1995 47.2896 40.5954 47.4562 40.9287 47.7896L47.9287 54.7896L62.9287 39.7896C63.262 39.4562 63.637 39.2896 64.0537 39.2896C64.512 39.2896 64.887 39.4562 65.1787 39.7896L67.4912 42.0396C67.7829 42.3312 67.9287 42.7062 67.9287 43.1646C67.9287 43.6229 67.7829 43.9979 67.4912 44.2896L49.0537 62.6646C48.762 62.9979 48.387 63.1646 47.9287 63.1646C47.4704 63.1646 47.0954 62.9979 46.8037 62.6646Z" fill="#BE2EDD"/>
</svg>
