<svg width="21" height="20" viewBox="0 0 21 20" fill="none" xmlns="http://www.w3.org/2000/svg">
<g clip-path="url(#clip0)">
<path d="M6.4436 9.56218C6.4436 9.31149 6.24017 9.10864 5.98877 9.10864C5.73737 9.10864 5.53394 9.31149 5.53394 9.56218C5.53394 10.7531 6.85132 12.3883 7.00145 12.5712C7.09163 12.6801 7.22219 12.7368 7.35365 12.7368C7.45492 12.7368 7.55708 12.7031 7.64189 12.6341C7.83599 12.475 7.86396 12.1894 7.70496 11.9954C7.21733 11.4028 6.4436 10.2185 6.4436 9.56218Z" fill="white"/>
<path d="M15.9948 9.10864C15.7434 9.10864 15.5399 9.31149 15.5399 9.56218C15.5399 10.2163 14.7662 11.4019 14.2786 11.9959C14.1196 12.1894 14.148 12.4751 14.3421 12.6341C14.4265 12.7031 14.5286 12.7368 14.6303 12.7368C14.7618 12.7368 14.8919 12.6801 14.9821 12.5712C15.1322 12.3883 16.4496 10.7531 16.4496 9.56218C16.4496 9.31149 16.2462 9.10864 15.9948 9.10864Z" fill="white"/>
<path d="M10.9918 9.10864C10.7404 9.10864 10.537 9.31149 10.537 9.56218V12.2833C10.537 12.534 10.7404 12.7368 10.9918 12.7368C11.2432 12.7368 11.4467 12.534 11.4467 12.2833V9.56218C11.4466 9.31149 11.2432 9.10864 10.9918 9.10864Z" fill="white"/>
<path d="M15.9948 1.85236C15.7192 1.85236 15.4312 1.88871 15.1321 1.94411C14.1304 0.779731 12.6475 0.038269 10.9919 0.038269C9.33622 0.038269 7.85331 0.779731 6.85163 1.94407C6.55247 1.88871 6.26445 1.85232 5.98887 1.85232C3.23015 1.85236 0.98584 4.09027 0.98584 6.84106C0.98584 8.72599 2.05182 10.4395 3.72541 11.2868L3.71654 18.1405C3.71611 18.6352 3.90884 19.1003 4.25929 19.4501C4.61017 19.8005 5.07609 19.9931 5.57224 19.9931H16.4133C17.4366 19.9931 18.269 19.1631 18.269 18.1427V11.2801C19.9363 10.4307 20.9979 8.71978 20.9979 6.84106C20.9978 4.09027 18.7535 1.85236 15.9948 1.85236ZM17.3593 18.1428C17.3593 18.6627 16.9347 19.0861 16.4132 19.0861H5.5722C5.31948 19.0861 5.08185 18.9878 4.90285 18.8093C4.72427 18.6309 4.62569 18.3939 4.62612 18.1415L4.62851 16.365H17.3593V18.1428ZM17.6409 10.5742C17.6169 10.5839 17.5942 10.5954 17.5729 10.6092C17.5156 10.6446 17.4685 10.6916 17.4334 10.7456C17.3979 10.7991 17.3739 10.8612 17.3642 10.9276C17.3601 10.9528 17.3588 10.9781 17.3593 11.0038V15.4579H4.62966L4.6355 11.0099C4.63593 10.9852 4.6346 10.9599 4.63107 10.9355C4.6213 10.8669 4.59597 10.8031 4.55909 10.7477C4.52442 10.6959 4.47914 10.6508 4.42405 10.6162C4.40141 10.602 4.3774 10.5896 4.35255 10.5794C2.85975 9.92847 1.89546 8.46247 1.89546 6.84106C1.89546 4.59027 3.73163 2.75939 5.98883 2.75939C6.07705 2.75939 6.17017 2.77002 6.26155 2.7772C5.80138 3.57466 5.53399 4.49618 5.53399 5.4805C5.53399 5.73119 5.73742 5.93404 5.98883 5.93404C6.24023 5.93404 6.44366 5.73119 6.44366 5.4805C6.44366 2.97992 8.48411 0.945294 10.9919 0.945294C13.4996 0.945294 15.54 2.97992 15.54 5.4805C15.54 5.73119 15.7434 5.93404 15.9948 5.93404C16.2462 5.93404 16.4497 5.73119 16.4497 5.4805C16.4497 4.49618 16.1823 3.5747 15.7221 2.7772C15.8135 2.77002 15.9066 2.75939 15.9948 2.75939C18.2521 2.75939 20.0882 4.59032 20.0882 6.84106C20.0882 8.45673 19.1279 9.9209 17.6409 10.5742Z" fill="white"/>
</g>
<defs>
<clipPath id="clip0">
<rect x="0.98584" y="0.038269" width="20.012" height="19.9548" fill="white"/>
</clipPath>
</defs>
</svg>
