<svg width="45" height="45" viewBox="0 0 45 45" fill="none" xmlns="http://www.w3.org/2000/svg">
<g clip-path="url(#clip0)">
<path d="M40.1089 29.3903C40.0654 29.3175 40.0196 29.2478 39.9739 29.1863C39.5195 28.551 38.8437 28.1311 38.0727 28.0043C37.3054 27.8775 36.5277 28.0582 35.8947 28.5128L27.5096 34.5001H18.7497C18.3364 34.5001 17.9997 34.1641 17.9997 33.7501C17.9997 33.3361 18.3364 33.0001 18.7497 33.0001H23.6247C25.0722 33.0001 26.2497 31.8227 26.2497 30.3751C26.2497 30.3668 26.2489 30.2978 26.2482 30.2904C26.2017 28.8436 24.9815 27.7156 23.5648 27.7502H13.808C12.9433 27.7576 12.101 28.0674 11.4373 28.6209L7.76976 31.6734C7.59872 31.8167 7.49976 32.0274 7.49976 32.2502V41.2502C7.49976 41.6649 7.83576 42.0001 8.24973 42.0001H26.858C28.076 41.9986 29.2625 41.5696 30.2001 40.7934L39.2923 33.2807C40.5275 32.4007 40.886 30.6923 40.1089 29.3903ZM38.3802 32.0918L29.2444 39.6375C28.5739 40.1926 27.7257 40.4985 26.8571 40.5H8.9997V32.6017L12.3979 29.7727C12.7969 29.4405 13.3017 29.2544 13.8147 29.2499L23.5887 29.2492C24.2104 29.2484 24.7294 29.7187 24.7497 30.375C24.7497 30.9953 24.2449 31.5 23.6247 31.5H18.7497C17.5092 31.5 16.4997 32.5095 16.4997 33.75C16.4997 34.9905 17.5092 36 18.7497 36H27.7497C27.9057 36 28.0579 35.9512 28.1869 35.8605L36.7684 29.7323C37.0774 29.5103 37.4531 29.424 37.8297 29.484C38.2054 29.5462 38.5339 29.7502 38.7596 30.0652C38.7821 30.096 38.8023 30.1274 38.8219 30.1597C39.2015 30.795 39.0252 31.6297 38.3802 32.0918Z" fill="#D1D1D1"/>
<path d="M8.22753 30.7501H0V32.2502H7.47747V43.5002H0V45.0001H8.22753C8.64149 45.0001 8.9775 44.6649 8.9775 44.2501V31.5001C8.9775 31.0853 8.64149 30.7501 8.22753 30.7501Z" fill="#D1D1D1"/>
<path d="M3.75 37.5C2.50951 37.5 1.5 38.5095 1.5 39.75C1.5 40.9905 2.50951 42 3.75 42C4.99049 42 6 40.9905 6 39.75C6 38.5095 4.99049 37.5 3.75 37.5ZM3.75 40.5C3.33674 40.5 3.00003 40.164 3.00003 39.75C3.00003 39.336 3.33674 39 3.75 39C4.16326 39 4.49997 39.336 4.49997 39.75C4.49997 40.164 4.16326 40.5 3.75 40.5Z" fill="#D1D1D1"/>
<path d="M44.25 23.25H0.749971C0.336006 23.25 0 23.5852 0 24C0 26.8942 2.35503 29.2499 5.24997 29.2499H39.7499C42.6442 29.2499 44.9999 26.8942 44.9999 24C45 23.5853 44.6648 23.25 44.25 23.25ZM39.75 27.75H5.24997C3.43872 27.75 1.92375 26.4592 1.5757 24.75H43.4242C43.0763 26.4592 41.5613 27.75 39.75 27.75Z" fill="#D1D1D1"/>
<path d="M22.5 3.75C11.748 3.75 3 12.498 3 23.25V24C3 24.4148 3.33601 24.75 3.74997 24.75H41.25C41.6648 24.75 42 24.4148 42 24V23.25C42.0001 12.4979 33.2527 3.75 22.5 3.75ZM4.50003 23.2499C4.50003 13.3252 12.5752 5.24994 22.5 5.24994C32.4248 5.24994 40.5 13.3252 40.5 23.2499H4.50003Z" fill="#D1D1D1"/>
<path d="M10.1642 12.3052C9.63994 12.8947 9.15399 13.5255 8.71973 14.1809L9.96997 15.0097C10.366 14.4126 10.8084 13.8374 11.2854 13.3012L10.1642 12.3052Z" fill="#D1D1D1"/>
<path d="M22.5002 6.75C18.2882 6.75229 14.2779 8.34372 11.209 11.229L12.2365 12.3217C15.0265 9.6982 18.6722 8.25223 22.501 8.25003L22.5002 6.75Z" fill="#D1D1D1"/>
<path d="M24.7497 0H20.2498V1.50003H24.7497V0Z" fill="#D1D1D1"/>
<path d="M23.2498 0.749878H21.7498V4.49991H23.2498V0.749878Z" fill="#D1D1D1"/>
</g>
<defs>
<clipPath id="clip0">
<rect width="45" height="45" fill="white"/>
</clipPath>
</defs>
</svg>
