<svg width="45" height="45" viewBox="0 0 45 45" fill="none" xmlns="http://www.w3.org/2000/svg">
<path d="M37.6146 7.16852H35.4182C35.0903 7.16852 34.8827 7.3762 34.8827 7.60568H34.8826V14.7089C34.8826 15.0039 35.2323 15.157 35.5929 15.157C35.9426 15.157 36.3032 15.004 36.3032 14.7089V12.1736H37.5273C38.9697 12.1736 40.0953 11.4851 40.0953 9.6929V9.62742C40.0953 7.83517 39.0025 7.16852 37.6146 7.16852ZM38.6746 9.80224C38.6746 10.6546 38.2375 11.059 37.5272 11.059H36.3032V8.41436H37.5272C38.2375 8.41436 38.6746 8.81875 38.6746 9.67111V9.80224Z" fill="#D1D1D1"/>
<path d="M25.7579 9.94538C23.6833 7.87082 20.9251 6.72833 17.9913 6.72833C15.0574 6.72833 12.2992 7.87082 10.2247 9.94538C9.97427 10.1957 9.97427 10.6016 10.2247 10.852C10.475 11.1023 10.8809 11.1023 11.1312 10.852C12.9636 9.01963 15.3998 8.01048 17.9912 8.01048C20.5825 8.01048 23.0189 9.01963 24.8512 10.852C24.9764 10.9771 25.1405 11.0397 25.3045 11.0397C25.4685 11.0397 25.6326 10.9771 25.7579 10.852C26.0082 10.6017 26.0082 10.1957 25.7579 9.94538Z" fill="#D1D1D1"/>
<path d="M23.1135 12.5901C20.2892 9.76579 15.6939 9.76579 12.8697 12.5901C12.6193 12.8404 12.6193 13.2463 12.8697 13.4967C13.12 13.747 13.526 13.747 13.7763 13.4967C16.1006 11.1724 19.8825 11.1724 22.2069 13.4967C22.3321 13.6218 22.4961 13.6844 22.6601 13.6844C22.8242 13.6844 22.9882 13.6218 23.1135 13.4967C23.3638 13.2463 23.3638 12.8404 23.1135 12.5901Z" fill="#D1D1D1"/>
<path d="M20.5104 15.1929C19.1213 13.8039 16.8612 13.8039 15.4722 15.1929C15.2218 15.4432 15.2218 15.8491 15.4722 16.0995C15.7225 16.3499 16.1285 16.3498 16.3788 16.0995C17.268 15.2104 18.7147 15.2104 19.6039 16.0995C19.729 16.2247 19.8931 16.2872 20.0571 16.2872C20.2211 16.2872 20.3852 16.2246 20.5104 16.0995C20.7608 15.8491 20.7608 15.4433 20.5104 15.1929Z" fill="#D1D1D1"/>
<path d="M31.5459 27.6783C31.2686 27.5256 30.9949 27.3585 30.7326 27.1813L26.4923 24.3168C25.2055 23.4473 23.7043 22.9879 22.1513 22.9879H14.3685C12.3026 22.9879 10.3588 23.7909 8.89512 25.249C8.14278 25.9986 7.28568 26.6256 6.34762 27.1127C5.79286 27.4008 5.44824 27.9678 5.44824 28.5924C5.44824 29.5123 6.19654 30.2606 7.1164 30.2606H9.76981C10.1238 30.2606 10.4109 29.9736 10.4109 29.6195C10.4109 29.2655 10.1238 28.9785 9.76981 28.9785H7.1164C6.90353 28.9785 6.7303 28.8052 6.7303 28.5924C6.7303 28.4481 6.81001 28.3172 6.93842 28.2505C7.99231 27.7033 8.95515 26.999 9.79995 26.1573C11.0216 24.9402 12.6441 24.2699 14.3684 24.2699H16.1108V28.9785H13.9811C13.627 28.9785 13.34 29.2655 13.34 29.6195C13.34 29.9736 13.627 30.2606 13.9811 30.2606H31.559C32.0859 30.2606 32.5147 29.8319 32.5147 29.3049C32.5147 28.6301 32.1434 28.0067 31.5459 27.6783ZM17.3931 28.9785V24.27H22.1514C23.4476 24.27 24.7006 24.6536 25.7747 25.3792L30.015 28.2437C30.3094 28.4426 30.6166 28.6303 30.9283 28.8017C31.0089 28.8461 31.0765 28.9071 31.1273 28.9785H17.3931Z" fill="#D1D1D1"/>
<path d="M18.9813 31.2352H17.0012C16.6472 31.2352 16.3601 31.5223 16.3601 31.8763C16.3601 32.2303 16.6472 32.5174 17.0012 32.5174H18.9813C19.3354 32.5174 19.6224 32.2303 19.6224 31.8763C19.6224 31.5223 19.3354 31.2352 18.9813 31.2352Z" fill="#D1D1D1"/>
<path d="M44.4469 30.6971L44.2444 30.361C43.4813 29.0946 42.2119 28.2029 40.7618 27.9144L39.1067 27.5853V19.1964H43.3898C44.2717 19.1964 44.989 18.479 44.989 17.5972V5.11225C44.989 4.23036 44.2716 3.513 43.3898 3.513H30.9049C30.023 3.513 29.3056 4.23045 29.3056 5.11225V9.84822C29.3056 10.2022 29.5926 10.4893 29.9467 10.4893C30.3008 10.4893 30.5878 10.2022 30.5878 9.84822V5.11225C30.5878 4.93735 30.73 4.79506 30.9049 4.79506H43.3899C43.5648 4.79506 43.7071 4.93735 43.7071 5.11225V17.5972C43.7071 17.7721 43.5648 17.9144 43.3899 17.9144H30.9049C30.73 17.9144 30.5877 17.7721 30.5877 17.5972V14.0158C30.5877 13.6618 30.3007 13.3747 29.9466 13.3747C29.5925 13.3747 29.3055 13.6618 29.3055 14.0158V17.5972C29.3055 18.4791 30.023 19.1965 30.9048 19.1965H35.7617V26.9202L34.9109 26.751C33.7367 26.5175 32.5919 25.8088 31.8329 25.296L27.5927 22.4316C25.9795 21.3418 24.0978 20.7658 22.1511 20.7658H14.3684C11.7787 20.7658 9.34212 21.7724 7.50759 23.6001C6.34673 24.7566 4.88547 25.5454 3.28174 25.8813L2.36135 26.0741C0.993072 26.3606 0 27.5833 0 28.9813V35.1899C0 35.9305 0.437254 36.6034 1.1141 36.9042L3.66749 38.039C3.82191 38.8465 4.21091 39.6175 4.83476 40.2414C5.66383 41.0705 6.75287 41.485 7.84201 41.485C8.93115 41.485 10.0201 41.0705 10.8493 40.2414C11.3825 39.7082 11.7432 39.0672 11.9335 38.388H33.2237C33.414 39.0672 33.7747 39.7082 34.308 40.2414C35.1113 41.0446 36.1792 41.4871 37.3152 41.4871C38.4512 41.4871 39.5192 41.0447 40.3226 40.2414C40.8558 39.7082 41.2165 39.0672 41.4068 38.388H42.6229C43.9336 38.388 45 37.3217 45 36.011V32.6859C44.9998 31.9851 44.8086 31.2974 44.4469 30.6971ZM37.0438 19.1964H37.8246V27.3303L37.0438 27.175V19.1964ZM9.94259 39.3349C9.3815 39.896 8.63548 40.205 7.84192 40.205C7.04836 40.205 6.30235 39.896 5.74126 39.3349C4.84117 38.4348 4.64096 37.0963 5.13965 36.0007C5.14369 35.9919 5.14756 35.983 5.1516 35.9742C5.16681 35.9417 5.18289 35.9095 5.19933 35.8775C5.20706 35.8624 5.21479 35.8474 5.22288 35.8325C5.23773 35.8047 5.2532 35.7771 5.26902 35.7497C5.27992 35.7308 5.29108 35.712 5.30242 35.6934C5.3171 35.6692 5.33195 35.6452 5.34742 35.6213C5.36139 35.5998 5.37581 35.5785 5.3904 35.5574C5.40481 35.5364 5.41914 35.5153 5.43408 35.4946C5.45122 35.471 5.46906 35.4478 5.48699 35.4246C5.50097 35.4064 5.51459 35.3882 5.529 35.3703C5.5501 35.3442 5.57216 35.3187 5.59413 35.2932C5.6067 35.2787 5.61874 35.2639 5.63157 35.2496C5.66426 35.2133 5.69793 35.1777 5.73256 35.1428C5.73554 35.1398 5.73827 35.1366 5.74126 35.1336C5.74785 35.127 5.75479 35.1209 5.76147 35.1144C5.79083 35.0856 5.82036 35.0571 5.8505 35.0298C5.85833 35.0226 5.86659 35.016 5.8745 35.009C5.90456 34.9824 5.93479 34.9559 5.96573 34.9307C5.96863 34.9283 5.9717 34.9261 5.97461 34.9238C7.06119 34.0444 8.62836 34.0455 9.71363 34.9273C9.71486 34.9283 9.71618 34.9292 9.7175 34.9303C9.75064 34.9572 9.78307 34.9855 9.81532 35.0142C9.82112 35.0193 9.8271 35.0241 9.83281 35.0293C9.87008 35.063 9.90664 35.0977 9.9425 35.1336C9.98117 35.1722 10.0184 35.212 10.0546 35.2524C10.0706 35.2701 10.0856 35.2883 10.101 35.3063C10.1198 35.3283 10.1387 35.3504 10.1568 35.3728C10.1771 35.398 10.1967 35.4237 10.216 35.4493C10.2269 35.4637 10.2377 35.4781 10.2483 35.4926C10.2717 35.5249 10.2946 35.5576 10.3166 35.5908C10.3204 35.5964 10.3241 35.6021 10.3278 35.6077C11.0819 36.7595 10.9536 38.3238 9.94259 39.3349ZM39.4158 39.3349C38.8546 39.896 38.1086 40.205 37.315 40.205C36.5215 40.205 35.7756 39.896 35.2145 39.3349C34.2033 38.3238 34.075 36.7593 34.8292 35.6075C34.8328 35.602 34.8364 35.5965 34.8401 35.591C34.8621 35.5578 34.8851 35.525 34.9086 35.4925C34.9191 35.4781 34.9298 35.4638 34.9406 35.4497C34.96 35.4239 34.9797 35.3981 35.0002 35.3727C35.0182 35.3505 35.0368 35.3287 35.0556 35.3069C35.0711 35.2887 35.0863 35.2702 35.1024 35.2524C35.1386 35.212 35.1759 35.1723 35.2146 35.1336C35.7757 34.5725 36.5216 34.2635 37.3151 34.2635C38.1087 34.2635 38.8547 34.5725 39.4158 35.1336C39.4545 35.1723 39.4917 35.2121 39.528 35.2525C39.5439 35.2702 39.559 35.2885 39.5744 35.3066C39.5933 35.3285 39.6121 35.3505 39.6301 35.3728C39.6505 35.3981 39.6701 35.4238 39.6895 35.4495C39.7003 35.4638 39.7111 35.4782 39.7217 35.4927C39.7451 35.5251 39.7681 35.5577 39.79 35.5908C39.7938 35.5965 39.7975 35.6021 39.8012 35.6077C40.5551 36.7594 40.4268 38.3239 39.4158 39.3349ZM43.7179 36.011H43.7178C43.7178 36.6148 43.2266 37.106 42.6227 37.106H41.5674C41.5422 36.1762 41.214 35.2891 40.6234 34.5618C40.6195 34.5569 40.6157 34.5518 40.6116 34.5469C40.5751 34.5023 40.5372 34.4586 40.4987 34.4152C40.4889 34.4042 40.4795 34.3927 40.4696 34.3816C40.4288 34.3367 40.3866 34.2927 40.3437 34.2493C40.3365 34.2419 40.3298 34.2342 40.3224 34.2269C39.7701 33.6747 39.0927 33.293 38.3542 33.1084C38.0184 33.0244 37.6701 32.9813 37.315 32.9813C37.0311 32.9813 36.7513 33.009 36.4789 33.0629C35.6616 33.225 34.9103 33.6245 34.3078 34.2269C34.3006 34.2341 34.294 34.2416 34.2869 34.2489C34.2438 34.2926 34.2015 34.3367 34.1606 34.3818C34.1509 34.3925 34.1419 34.4035 34.1325 34.4143C34.0936 34.458 34.0553 34.5021 34.0185 34.5471C34.0148 34.5516 34.0113 34.5563 34.0077 34.5609C33.4166 35.2882 33.0881 36.1758 33.0628 37.1061H12.0941C12.0689 36.1747 11.7397 35.286 11.1471 34.558C11.1444 34.5546 11.1418 34.5512 11.139 34.5478C11.1004 34.5005 11.0602 34.4542 11.0193 34.4083C11.0118 34.3998 11.0047 34.3911 10.9971 34.3827C10.9492 34.3299 10.9 34.2779 10.8491 34.227C10.6418 34.0197 10.4183 33.8383 10.1826 33.6828C9.47545 33.2165 8.65869 32.9833 7.84192 32.9833C6.75287 32.9833 5.66374 33.3979 4.83467 34.227C4.7873 34.2743 4.74151 34.3229 4.69668 34.3722C4.68341 34.3867 4.67067 34.4016 4.65757 34.4163C4.62593 34.452 4.59482 34.4882 4.56449 34.5247C4.55105 34.541 4.5376 34.5573 4.52442 34.5739C4.49304 34.613 4.46245 34.6525 4.43257 34.6925C4.42325 34.705 4.41367 34.7172 4.40462 34.7298C4.32429 34.8397 4.24976 34.9531 4.18085 35.0694C4.17892 35.0726 4.17707 35.076 4.17514 35.0792C4.14148 35.1365 4.10922 35.1945 4.07837 35.2531C4.07749 35.2548 4.07662 35.2565 4.07565 35.2582C3.85214 35.6835 3.70185 36.1435 3.63294 36.6207L1.63494 35.7326C1.42066 35.6373 1.28223 35.4243 1.28223 35.1899V28.9813C1.28223 28.1867 1.84675 27.4918 2.62449 27.3288L3.54488 27.1361C5.39233 26.7491 7.07561 25.8404 8.41277 24.5082C10.0053 22.9215 12.1205 22.0477 14.3687 22.0477H22.1513C23.8414 22.0477 25.4748 22.5478 26.8753 23.4938L31.1154 26.3582C31.9663 26.9331 33.2596 27.7296 34.661 28.0084L40.5119 29.1719C41.6089 29.3901 42.5691 30.0647 43.1465 31.0227L43.349 31.3588C43.5904 31.7593 43.7179 32.2182 43.7179 32.6859V36.011Z" fill="#D1D1D1"/>
<path d="M9.21803 35.858C8.85029 35.4904 8.36162 35.288 7.84175 35.288C7.32188 35.288 6.83312 35.4905 6.46556 35.858C6.09801 36.2256 5.89551 36.7143 5.89551 37.2342C5.89551 37.7541 6.09801 38.2428 6.46556 38.6104C6.83312 38.978 7.32188 39.1805 7.84184 39.1805C8.36171 39.1805 8.85047 38.978 9.21803 38.6104C9.97687 37.8515 9.97687 36.6169 9.21803 35.858ZM8.31135 37.7038C8.18593 37.8292 8.01911 37.8983 7.84175 37.8983C7.6643 37.8983 7.49757 37.8292 7.37215 37.7037C7.24673 37.5783 7.17756 37.4116 7.17756 37.2341C7.17756 37.0567 7.24665 36.8899 7.37215 36.7645C7.49757 36.6391 7.6643 36.5699 7.84175 36.5699C8.01911 36.5699 8.18593 36.639 8.31135 36.7645C8.57028 37.0235 8.57028 37.4449 8.31135 37.7038Z" fill="#D1D1D1"/>
<path d="M38.6915 35.8581C38.3239 35.4905 37.8352 35.288 37.3152 35.288C36.7953 35.288 36.3067 35.4904 35.9389 35.858C35.1802 36.6169 35.1802 37.8515 35.9389 38.6104C36.3066 38.978 36.7953 39.1805 37.3152 39.1805C37.8352 39.1805 38.3238 38.978 38.6914 38.6105C39.059 38.2429 39.2614 37.7542 39.2614 37.2343C39.2614 36.7144 39.059 36.2257 38.6915 35.8581ZM37.7848 37.7039C37.6594 37.8293 37.4927 37.8984 37.3152 37.8984C37.1378 37.8984 36.971 37.8293 36.8456 37.7039C36.5867 37.445 36.5867 37.0236 36.8456 36.7647C36.971 36.6393 37.1378 36.5701 37.3152 36.5701C37.4927 36.5701 37.6594 36.6392 37.7849 36.7647C37.9103 36.8901 37.9794 37.0568 37.9794 37.2343C37.9794 37.4116 37.9104 37.5784 37.7848 37.7039Z" fill="#D1D1D1"/>
</svg>
