<svg width="45" height="45" viewBox="0 0 45 45" fill="none" xmlns="http://www.w3.org/2000/svg">
<g clip-path="url(#clip0)">
<path d="M10.771 24.469C9.66657 24.469 8.76807 25.3674 8.76807 26.4718C8.76807 27.5761 9.66657 28.4745 10.771 28.4745C11.8754 28.4745 12.7738 27.5761 12.7738 26.4718C12.7738 25.3674 11.8753 24.469 10.771 24.469ZM10.771 27.1538C10.395 27.1538 10.0891 26.8478 10.0891 26.4719C10.0891 26.096 10.395 25.7901 10.771 25.7901C11.147 25.7901 11.4529 26.096 11.4529 26.4719C11.4529 26.8478 11.1469 27.1538 10.771 27.1538Z" fill="#D1D1D1"/>
<path d="M28.8917 37.2054C28.8034 36.933 28.5497 36.7489 28.2637 36.7489H24.3404L23.128 33.0176C23.0407 32.7486 22.7827 32.5612 22.4999 32.5612C22.2171 32.5612 21.9592 32.7485 21.8717 33.0176L20.6594 36.7489H16.7362C16.4501 36.7489 16.1965 36.9331 16.1081 37.2053C16.0196 37.4774 16.1165 37.7756 16.348 37.9436L19.5219 40.2497L18.3095 43.9809C18.2249 44.2412 18.3138 44.5343 18.5288 44.7037C18.7585 44.8846 19.0893 44.8912 19.3259 44.7193L22.4998 42.4132L25.6737 44.7193C25.9219 44.8997 26.2708 44.8823 26.5002 44.6789C26.6947 44.5063 26.7704 44.2283 26.69 43.981L25.4776 40.2498L28.6515 37.9437C28.8833 37.7757 28.9801 37.4775 28.8917 37.2054ZM24.3133 39.463C24.0817 39.6311 23.9849 39.9293 24.0733 40.2014L24.8058 42.4558L22.888 41.0625C22.6592 40.8962 22.3405 40.8962 22.1117 41.0625L20.1939 42.4558L20.9264 40.2014C21.0148 39.9293 20.918 39.6311 20.6864 39.463L18.7688 38.0698H21.1392C21.4253 38.0698 21.6789 37.8855 21.7673 37.6133L22.4998 35.359L23.2323 37.6133C23.3207 37.8855 23.5744 38.0698 23.8604 38.0698H26.2308L24.3133 39.463Z" fill="#D1D1D1"/>
<path d="M44.9677 37.2052C44.8793 36.933 44.6256 36.7487 44.3395 36.7487H40.4164L39.204 33.0175C39.1166 32.7485 38.8587 32.5611 38.5758 32.5611C38.293 32.5611 38.0351 32.7484 37.9477 33.0175L36.7353 36.7487H32.8121C32.5261 36.7487 32.2724 36.933 32.184 37.2052C32.0956 37.4773 32.1924 37.7755 32.4239 37.9435L35.5978 40.2496L34.3855 43.9808C34.3008 44.2411 34.3898 44.5342 34.6048 44.7035C34.8344 44.8845 35.1652 44.8911 35.4018 44.7192L38.5757 42.4131L41.7497 44.7192C41.9979 44.8995 42.3468 44.8822 42.5763 44.6788C42.7708 44.5062 42.8464 44.2281 42.766 43.9809L41.5537 40.2497L44.7276 37.9436C44.9593 37.7755 45.0562 37.4773 44.9677 37.2052ZM40.3892 39.463C40.1577 39.6311 40.0608 39.9292 40.1493 40.2013L40.8816 42.4557L38.964 41.0625C38.7325 40.8943 38.419 40.8942 38.1876 41.0625L36.2698 42.4557L37.0023 40.2013C37.0907 39.9292 36.9939 39.631 36.7624 39.463L34.8447 38.0697H37.2152C37.5013 38.0697 37.7549 37.8855 37.8434 37.6133L38.5758 35.3589L39.3083 37.6133C39.3967 37.8855 39.6504 38.0697 39.9365 38.0697H42.3069L40.3892 39.463Z" fill="#D1D1D1"/>
<path d="M12.8159 37.2054C12.7274 36.933 12.4737 36.7489 12.1877 36.7489H8.26449L7.05213 33.0176C6.96371 32.7454 6.71006 32.5612 6.42397 32.5612C6.13789 32.5612 5.88424 32.7454 5.79582 33.0176L4.58345 36.7489H0.660281C0.374197 36.7489 0.120544 36.9331 0.0321264 37.2053C-0.0562916 37.4774 0.0405639 37.7756 0.272068 37.9436L3.44597 40.2497L2.23361 43.9809C2.14519 44.253 2.24205 44.5513 2.47355 44.7193C2.70497 44.8875 3.01847 44.8875 3.24998 44.7193L6.42388 42.4132L9.59779 44.7193C9.84608 44.8997 10.1949 44.8823 10.4243 44.6789C10.6188 44.5063 10.6945 44.2283 10.6141 43.981L9.40171 40.2498L12.5756 37.9437C12.8075 37.7757 12.9043 37.4775 12.8159 37.2054ZM8.23733 39.463C8.00583 39.6311 7.90897 39.9293 7.99739 40.2014L8.72987 42.4558L6.8121 41.0625C6.58323 40.8962 6.26454 40.8962 6.03567 41.0625L4.11807 42.4557L4.85047 40.2013C4.93888 39.9292 4.84203 39.631 4.61052 39.4629L2.69284 38.0697H5.06325C5.34933 38.0697 5.60299 37.8855 5.6914 37.6133L6.42388 35.3589L7.15636 37.6133C7.24478 37.8855 7.49844 38.0697 7.78452 38.0697H10.1549L8.23733 39.463Z" fill="#D1D1D1"/>
<path d="M39.6533 16.62C40.3355 16.071 40.7727 15.2293 40.7727 14.2875C40.7727 12.6372 39.4301 11.2946 37.7799 11.2946H27.156C27.4862 10.5746 27.8674 9.4778 28.0853 7.95316C28.5913 4.41037 27.8266 2.52987 27.096 1.57616C26.4776 0.768977 25.6467 0.280833 24.6935 0.164641C23.8891 0.0658521 23.1546 0.704729 23.1332 1.5128C23.0095 2.78317 22.5571 6.26829 21.9092 7.56433C20.2446 10.8934 16.276 12.8783 15.0503 13.4274C14.6214 13.0588 14.0643 12.8353 13.4558 12.8353H8.0862C6.73515 12.8353 5.63599 13.9344 5.63599 15.2855V28.7091C5.63599 30.0603 6.73515 31.1594 8.0862 31.1594H13.4556C14.1785 31.1594 14.8292 30.8444 15.2779 30.3449C15.975 30.7849 17.1 31.2752 18.6536 31.2752H35.9139C37.5642 31.2752 38.9067 29.9326 38.9067 28.2823C38.9067 27.5259 38.6246 26.834 38.16 26.3065C39.1539 25.8191 39.8396 24.7967 39.8396 23.6173C39.8396 22.8608 39.5575 22.169 39.0929 21.6414C40.0867 21.1542 40.7725 20.1317 40.7725 18.9523C40.7727 18.0107 40.3354 17.1689 39.6533 16.62ZM13.4556 29.8384H8.0862C7.4635 29.8384 6.95689 29.3318 6.95689 28.7091V15.2854C6.95689 14.6627 7.4635 14.1561 8.0862 14.1561H13.4556C13.771 14.1561 14.0562 14.2864 14.2612 14.4956V29.2243C14.2612 29.3033 14.2755 29.3808 14.3026 29.4536C14.0955 29.6889 13.793 29.8384 13.4556 29.8384ZM35.0049 17.2804H37.7801C38.7021 17.2804 39.4521 18.0305 39.4521 18.9523C39.4521 19.8741 38.702 20.6243 37.7801 20.6243H35.0049C34.6402 20.6243 34.3444 20.9199 34.3444 21.2848C34.3444 21.6496 34.6402 21.9453 35.0049 21.9453H36.8471C37.7691 21.9453 38.519 22.6954 38.519 23.6172C38.519 24.539 37.769 25.2891 36.8471 25.2891H34.4986C34.1338 25.2891 33.8381 25.5848 33.8381 25.9496C33.8381 26.3145 34.1338 26.6101 34.4986 26.6101H35.914C36.8359 26.6101 37.586 27.3603 37.586 28.2822C37.586 29.2041 36.8359 29.9541 35.914 29.9541H18.6538C17.2906 29.9541 16.3665 29.4974 15.8647 29.1546C15.8914 29.0099 15.9061 28.8611 15.9061 28.7089V15.2854C15.9061 15.0272 15.8657 14.7784 15.7913 14.5446C17.3389 13.8344 21.3009 11.7344 23.0906 8.15504C23.9858 6.3648 24.4321 1.80591 24.4506 1.61273C24.4526 1.59181 24.4536 1.57063 24.4536 1.54962C24.4536 1.52712 24.4622 1.50796 24.4792 1.49302C24.5029 1.47219 24.5258 1.47483 24.5334 1.47579C24.9469 1.52624 25.5451 1.724 26.0474 2.37948C26.6241 3.13218 27.2188 4.67774 26.7776 7.76639C26.4037 10.3844 25.5169 11.5297 25.5114 11.5368C25.1652 11.9599 25.4769 12.6156 26.0225 12.6156H37.78C38.702 12.6156 39.452 13.3657 39.452 14.2876C39.452 15.2096 38.7019 15.9596 37.78 15.9596H35.0048C34.6401 15.9596 34.3443 16.2552 34.3443 16.6201C34.3443 16.9849 34.6401 17.2804 35.0049 17.2804Z" fill="#D1D1D1"/>
</g>
<defs>
<clipPath id="clip0">
<rect width="45" height="45" fill="white"/>
</clipPath>
</defs>
</svg>
