<svg width="16" height="12" viewBox="0 0 16 12" fill="none" xmlns="http://www.w3.org/2000/svg">
<path d="M3.14833 7.35767C3.17854 7.68187 3.15543 8.56318 2.30491 9.7887C2.24057 9.88118 2.25224 10.0059 2.33214 10.0852C2.6789 10.4294 2.89359 10.6466 3.04417 10.7986C3.24217 10.999 3.33257 11.0903 3.46487 11.2094C3.55321 11.2882 3.68687 11.2896 3.77615 11.2123C5.25862 9.93183 6.90519 7.28587 6.66693 4.04418C6.52731 2.14071 5.12861 0.759098 3.34127 0.759098C1.50702 0.759098 0.0147103 2.24021 0.0147101 4.061C0.01471 5.81748 1.40354 7.25793 3.14833 7.35767ZM3.34127 1.2244C4.87616 1.2244 6.07802 2.42447 6.19954 4.0778C6.19954 4.0778 6.19954 4.0778 6.19954 4.07803C6.46757 7.72391 4.28427 10.092 3.62462 10.7191C3.56031 10.6562 3.48684 10.5821 3.37858 10.4726C3.24812 10.3408 3.06958 10.1604 2.79951 9.8914C3.832 8.31236 3.63721 7.18727 3.55185 7.02595C3.51133 6.94939 3.42824 6.89781 3.34126 6.89781C1.76542 6.89781 0.48346 5.62527 0.48346 4.061C0.48346 2.49694 1.76542 1.2244 3.34127 1.2244Z" fill="black"/>
<path d="M11.4724 7.35748C11.5029 7.68078 11.4804 8.56141 10.629 9.78852C10.5649 9.881 10.5763 10.0057 10.6562 10.085C11.0023 10.4285 11.2168 10.6455 11.3671 10.7975C11.5658 10.9984 11.6564 11.0899 11.7887 11.2092C11.8771 11.288 12.0107 11.2892 12.1 11.2124C13.5825 9.93188 15.2293 7.28636 14.9915 4.04399L14.9915 4.04376C14.8514 2.14052 13.4525 0.758914 11.6651 0.758914C9.83087 0.758914 8.33856 2.24003 8.33856 4.06081C8.33856 5.81751 9.72742 7.25819 11.4724 7.35748ZM11.6651 1.22422C13.1998 1.22422 14.4023 2.42429 14.5241 4.07785L14.5241 4.07761C14.7914 7.7244 12.6081 10.0921 11.9485 10.7189C11.8839 10.656 11.8102 10.5814 11.7017 10.4717C11.5715 10.3399 11.3932 10.1598 11.1236 9.89121C12.1561 8.31194 11.9613 7.18709 11.8759 7.026C11.8354 6.94943 11.7521 6.89762 11.6651 6.89762C10.0893 6.89762 8.80731 5.62508 8.80731 4.06081C8.80731 2.49676 10.0893 1.22422 11.6651 1.22422Z" fill="black"/>
</svg>
