<svg width="15" height="11" viewBox="0 0 15 11" fill="none" xmlns="http://www.w3.org/2000/svg">
<path d="M11.862 4.292C11.8318 3.9648 11.8549 3.07531 12.7055 1.83843C12.7698 1.74509 12.7581 1.61921 12.6782 1.53919C12.3315 1.19178 12.1168 0.972565 11.9662 0.819164C11.7682 0.616899 11.6778 0.524736 11.5455 0.40456C11.4572 0.325006 11.3235 0.323621 11.2342 0.401601C9.75176 1.69397 8.10518 4.36447 8.34345 7.63621C8.48306 9.55733 9.88177 10.9518 11.6691 10.9518C13.5034 10.9518 14.9957 9.45691 14.9957 7.61924C14.9957 5.84647 13.6068 4.39267 11.862 4.292ZM11.6691 10.4821C10.1342 10.4821 8.93236 9.27094 8.81084 7.60228C8.81084 7.60228 8.81084 7.60228 8.81084 7.60205C8.54281 3.92237 10.7261 1.53231 11.3858 0.899422C11.4501 0.962938 11.5235 1.03768 11.6318 1.1482C11.7623 1.2812 11.9408 1.46327 12.2109 1.73478C11.1784 3.32846 11.3732 4.46398 11.4585 4.6268C11.499 4.70407 11.5821 4.75613 11.6691 4.75613C13.245 4.75613 14.5269 6.04047 14.5269 7.61924C14.5269 9.19779 13.245 10.4821 11.6691 10.4821Z" fill="black"/>
<path d="M3.54211 4.2923C3.51167 3.966 3.5341 3.07717 4.38554 1.83865C4.44964 1.74532 4.43818 1.61943 4.3583 1.5394C4.01222 1.19267 3.79777 0.973684 3.6474 0.820279C3.44874 0.617561 3.35808 0.525138 3.2258 0.404747C3.13744 0.325191 3.00378 0.324041 2.91453 0.401554C1.43206 1.69396 -0.21475 4.36408 0.0230465 7.63661V7.63684C0.163132 9.55778 1.56205 10.9522 3.34939 10.9522C5.18365 10.9522 6.67596 9.45735 6.67596 7.61963C6.67596 5.8466 5.28711 4.39252 3.54211 4.2923ZM3.34939 10.4826C1.81475 10.4826 0.612195 9.27138 0.490437 7.60244V7.60268C0.223109 3.92197 2.4064 1.53229 3.06603 0.899623C3.13058 0.963141 3.20429 1.03835 3.31278 1.14912C3.443 1.28212 3.62131 1.46396 3.89093 1.73501C2.85844 3.32897 3.05323 4.46428 3.13859 4.62687C3.17912 4.70415 3.26241 4.75644 3.34939 4.75644C4.92525 4.75644 6.20721 6.04082 6.20721 7.61963C6.20721 9.19823 4.92525 10.4826 3.34939 10.4826Z" fill="black"/>
</svg>
