<svg width="350" height="181" viewBox="0 0 350 181" fill="none" xmlns="http://www.w3.org/2000/svg">
<path d="M156.009 52.2L152.673 69H149.049L151.041 58.992L144.609 67.224H142.857L139.401 58.872L137.385 69H133.761L137.121 52.2H140.289L144.489 62.664L152.673 52.2H156.009ZM165.223 69.192C163.927 69.192 162.783 68.952 161.791 68.472C160.815 67.992 160.055 67.32 159.511 66.456C158.983 65.576 158.719 64.56 158.719 63.408C158.719 61.984 159.055 60.704 159.727 59.568C160.399 58.432 161.327 57.536 162.511 56.88C163.695 56.224 165.031 55.896 166.519 55.896C167.831 55.896 168.975 56.136 169.951 56.616C170.927 57.096 171.679 57.776 172.207 58.656C172.751 59.52 173.023 60.528 173.023 61.68C173.023 63.104 172.687 64.384 172.015 65.52C171.359 66.656 170.431 67.552 169.231 68.208C168.047 68.864 166.711 69.192 165.223 69.192ZM165.463 66.096C166.183 66.096 166.831 65.92 167.407 65.568C167.983 65.2 168.431 64.696 168.751 64.056C169.071 63.416 169.231 62.68 169.231 61.848C169.231 60.968 168.975 60.272 168.463 59.76C167.951 59.248 167.231 58.992 166.303 58.992C165.567 58.992 164.911 59.176 164.335 59.544C163.759 59.896 163.311 60.392 162.991 61.032C162.671 61.672 162.511 62.408 162.511 63.24C162.511 64.12 162.767 64.816 163.279 65.328C163.807 65.84 164.535 66.096 165.463 66.096ZM184.931 55.896C186.867 55.896 188.395 56.424 189.515 57.48C190.635 58.52 191.195 59.952 191.195 61.776C191.195 63.152 190.867 64.408 190.211 65.544C189.571 66.68 188.691 67.576 187.571 68.232C186.467 68.872 185.243 69.192 183.899 69.192C183.003 69.192 182.211 69.04 181.523 68.736C180.835 68.432 180.283 67.992 179.867 67.416L178.643 73.656H174.899L177.107 62.376C177.491 60.392 178.371 58.816 179.747 57.648C181.123 56.48 182.851 55.896 184.931 55.896ZM183.587 66.096C184.339 66.096 185.003 65.912 185.579 65.544C186.155 65.176 186.603 64.68 186.923 64.056C187.243 63.416 187.403 62.72 187.403 61.968C187.403 61.024 187.147 60.296 186.635 59.784C186.139 59.256 185.443 58.992 184.547 58.992C183.795 58.992 183.131 59.176 182.555 59.544C181.979 59.912 181.531 60.416 181.211 61.056C180.891 61.68 180.731 62.368 180.731 63.12C180.731 64.064 180.979 64.8 181.475 65.328C181.987 65.84 182.691 66.096 183.587 66.096ZM202.228 55.896C204.068 55.896 205.548 56.4 206.668 57.408C207.804 58.416 208.372 59.856 208.372 61.728C208.372 62.048 208.364 62.288 208.348 62.448L198.388 64.272C198.724 65.552 199.804 66.192 201.628 66.192C202.3 66.192 202.932 66.096 203.524 65.904C204.116 65.696 204.628 65.392 205.06 64.992L206.62 67.464C205.9 68.04 205.076 68.472 204.148 68.76C203.22 69.048 202.244 69.192 201.22 69.192C199.892 69.192 198.724 68.96 197.716 68.496C196.724 68.016 195.956 67.336 195.412 66.456C194.884 65.576 194.62 64.56 194.62 63.408C194.62 61.984 194.94 60.704 195.58 59.568C196.22 58.416 197.116 57.52 198.268 56.88C199.436 56.224 200.756 55.896 202.228 55.896ZM202.06 58.704C201.052 58.704 200.228 59.008 199.588 59.616C198.964 60.224 198.556 61.04 198.364 62.064L204.892 60.864C204.796 60.176 204.492 59.648 203.98 59.28C203.484 58.896 202.844 58.704 202.06 58.704ZM3.7659 85.376H5.4699L4.3659 90.968H12.2859L13.4139 85.376H15.1179L12.5979 98H10.8939L11.9979 92.432H4.0779L2.9499 98H1.2459L3.7659 85.376ZM26.1778 85.28C27.8578 85.28 29.1938 85.76 30.1858 86.72C31.1778 87.664 31.6738 89.008 31.6738 90.752L31.6498 91.304L20.8978 93.296C21.0258 94.384 21.4498 95.208 22.1698 95.768C22.8898 96.328 23.9058 96.608 25.2178 96.608C26.0658 96.608 26.8498 96.472 27.5698 96.2C28.2898 95.912 28.8818 95.52 29.3458 95.024L30.1138 96.248C29.5218 96.84 28.7858 97.304 27.9058 97.64C27.0258 97.96 26.0818 98.12 25.0738 98.12C23.2498 98.12 21.8098 97.64 20.7538 96.68C19.7138 95.72 19.1938 94.408 19.1938 92.744C19.1938 91.336 19.4898 90.064 20.0818 88.928C20.6898 87.792 21.5218 86.904 22.5778 86.264C23.6498 85.608 24.8498 85.28 26.1778 85.28ZM26.1298 86.72C25.1698 86.72 24.3058 86.944 23.5378 87.392C22.7858 87.84 22.1778 88.464 21.7138 89.264C21.2498 90.064 20.9778 90.984 20.8978 92.024L30.0898 90.296C30.0738 89.192 29.7058 88.32 28.9858 87.68C28.2818 87.04 27.3298 86.72 26.1298 86.72ZM42.4008 91.472C43.2008 91.68 43.8088 92.016 44.2248 92.48C44.6408 92.928 44.8488 93.488 44.8488 94.16C44.8488 94.912 44.5848 95.592 44.0568 96.2C43.5448 96.808 42.8248 97.288 41.8968 97.64C40.9848 97.976 39.9608 98.144 38.8248 98.144C36.8568 98.144 35.2488 97.608 34.0008 96.536L34.7208 95.336C35.1848 95.768 35.7768 96.096 36.4968 96.32C37.2168 96.544 38.0008 96.656 38.8488 96.656C39.6648 96.656 40.4008 96.544 41.0568 96.32C41.7128 96.096 42.2248 95.784 42.5928 95.384C42.9608 94.984 43.1448 94.536 43.1448 94.04C43.1448 93.432 42.8728 92.96 42.3288 92.624C41.8008 92.288 41.0648 92.12 40.1208 92.12H38.0328L38.2248 90.824H40.0248C41.1128 90.824 41.9848 90.624 42.6408 90.224C43.3128 89.824 43.6488 89.296 43.6488 88.64C43.6488 88.032 43.3848 87.56 42.8568 87.224C42.3288 86.888 41.6008 86.72 40.6728 86.72C39.4728 86.72 38.1368 87.064 36.6648 87.752L36.1848 86.336C37.7208 85.6 39.2648 85.232 40.8168 85.232C42.1928 85.232 43.2968 85.52 44.1288 86.096C44.9768 86.656 45.4008 87.416 45.4008 88.376C45.4008 89.112 45.1368 89.752 44.6088 90.296C44.0808 90.84 43.3448 91.232 42.4008 91.472ZM63.6502 96.656C64.0982 96.656 64.4982 96.584 64.8502 96.44L64.7062 97.856C64.2262 98.032 63.6982 98.12 63.1222 98.12C62.2742 98.12 61.6022 97.912 61.1062 97.496C60.6262 97.064 60.3542 96.48 60.2902 95.744C59.6982 96.496 58.9622 97.08 58.0822 97.496C57.2022 97.912 56.2342 98.12 55.1782 98.12C54.1062 98.12 53.1542 97.904 52.3222 97.472C51.4902 97.04 50.8422 96.424 50.3782 95.624C49.9142 94.808 49.6822 93.856 49.6822 92.768C49.6822 91.344 49.9862 90.064 50.5942 88.928C51.2182 87.792 52.0742 86.904 53.1622 86.264C54.2502 85.608 55.4662 85.28 56.8102 85.28C58.0102 85.28 59.0182 85.52 59.8342 86C60.6502 86.464 61.2422 87.136 61.6102 88.016L62.1382 85.376H63.8422L62.0422 94.352C61.9942 94.608 61.9702 94.848 61.9702 95.072C61.9702 95.584 62.1142 95.976 62.4022 96.248C62.6902 96.52 63.1062 96.656 63.6502 96.656ZM55.5382 96.608C56.5782 96.608 57.5142 96.36 58.3462 95.864C59.1782 95.352 59.8262 94.648 60.2902 93.752C60.7702 92.84 61.0102 91.824 61.0102 90.704C61.0102 89.472 60.6422 88.512 59.9062 87.824C59.1862 87.12 58.1702 86.768 56.8582 86.768C55.8182 86.768 54.8822 87.024 54.0502 87.536C53.2182 88.048 52.5622 88.76 52.0822 89.672C51.6182 90.568 51.3862 91.576 51.3862 92.696C51.3862 93.928 51.7462 94.888 52.4662 95.576C53.2022 96.264 54.2262 96.608 55.5382 96.608ZM77.4688 86.048C79.0688 86.048 80.3168 86.496 81.2128 87.392C82.1248 88.272 82.5808 89.488 82.5808 91.04C82.5808 92.384 82.2608 93.6 81.6208 94.688C80.9808 95.776 80.1008 96.632 78.9808 97.256C77.8608 97.88 76.6048 98.192 75.2128 98.192C73.4048 98.192 71.9968 97.656 70.9888 96.584C69.9968 95.512 69.5008 93.976 69.5008 91.976C69.5008 90.232 69.8528 88.6 70.5568 87.08C71.2608 85.56 72.2368 84.28 73.4848 83.24C74.7488 82.2 76.1968 81.504 77.8288 81.152L83.6848 79.928L83.7328 81.416L78.2128 82.568C76.5328 82.92 75.1168 83.656 73.9648 84.776C72.8288 85.88 72.0208 87.288 71.5408 89C72.2928 88.04 73.1648 87.312 74.1568 86.816C75.1648 86.304 76.2688 86.048 77.4688 86.048ZM75.3088 96.848C76.3168 96.848 77.2368 96.608 78.0688 96.128C78.9008 95.632 79.5568 94.968 80.0368 94.136C80.5168 93.288 80.7568 92.352 80.7568 91.328C80.7568 90.128 80.4208 89.208 79.7488 88.568C79.0928 87.912 78.1488 87.584 76.9168 87.584C75.9408 87.584 75.0048 87.816 74.1088 88.28C73.2288 88.744 72.5168 89.36 71.9728 90.128C71.4448 90.88 71.1808 91.672 71.1808 92.504C71.1808 93.848 71.5488 94.912 72.2848 95.696C73.0208 96.464 74.0288 96.848 75.3088 96.848ZM91.8217 98.264C90.3977 98.264 89.2937 97.944 88.5097 97.304C87.7257 96.648 87.3337 95.72 87.3337 94.52C87.3337 94.072 87.3737 93.672 87.4537 93.32L89.0377 85.376H90.7417L89.7097 90.632C90.8617 89.576 92.2457 89.048 93.8617 89.048C95.2217 89.048 96.2617 89.368 96.9817 90.008C97.7177 90.648 98.0857 91.568 98.0857 92.768C98.0857 93.824 97.8217 94.768 97.2937 95.6C96.7657 96.432 96.0217 97.088 95.0617 97.568C94.1177 98.032 93.0377 98.264 91.8217 98.264ZM101.71 85.376H103.414L100.894 98H99.1897L101.71 85.376ZM91.9897 96.968C92.8217 96.968 93.5657 96.792 94.2217 96.44C94.8937 96.088 95.4137 95.608 95.7817 95C96.1657 94.376 96.3577 93.696 96.3577 92.96C96.3577 92.112 96.0937 91.464 95.5657 91.016C95.0537 90.552 94.3177 90.32 93.3577 90.32C92.5417 90.32 91.7897 90.496 91.1017 90.848C90.4137 91.184 89.8377 91.672 89.3737 92.312L89.1337 93.464C89.0697 93.88 89.0377 94.168 89.0377 94.328C89.0377 95.16 89.2937 95.808 89.8057 96.272C90.3177 96.736 91.0457 96.968 91.9897 96.968ZM116.929 91.496C118.321 91.832 119.017 92.688 119.017 94.064C119.017 95.296 118.521 96.264 117.529 96.968C116.553 97.656 115.201 98 113.473 98H107.641L110.185 85.376H115.681C117.009 85.376 118.017 85.616 118.705 86.096C119.393 86.576 119.737 87.272 119.737 88.184C119.737 88.984 119.489 89.672 118.993 90.248C118.497 90.824 117.809 91.24 116.929 91.496ZM110.713 90.992H114.481C115.537 90.992 116.385 90.76 117.025 90.296C117.681 89.832 118.009 89.224 118.009 88.472C118.009 87.304 117.129 86.72 115.369 86.72H111.577L110.713 90.992ZM113.569 96.656C114.753 96.656 115.673 96.424 116.329 95.96C117.001 95.496 117.337 94.848 117.337 94.016C117.337 93.392 117.129 92.944 116.713 92.672C116.313 92.4 115.641 92.264 114.697 92.264H110.473L109.585 96.656H113.569ZM137.986 96.656C138.434 96.656 138.834 96.584 139.186 96.44L139.042 97.856C138.562 98.032 138.034 98.12 137.458 98.12C136.61 98.12 135.938 97.912 135.442 97.496C134.962 97.064 134.69 96.48 134.626 95.744C134.034 96.496 133.298 97.08 132.418 97.496C131.538 97.912 130.57 98.12 129.514 98.12C128.442 98.12 127.49 97.904 126.658 97.472C125.826 97.04 125.178 96.424 124.714 95.624C124.25 94.808 124.018 93.856 124.018 92.768C124.018 91.344 124.322 90.064 124.93 88.928C125.554 87.792 126.41 86.904 127.498 86.264C128.586 85.608 129.802 85.28 131.146 85.28C132.346 85.28 133.354 85.52 134.17 86C134.986 86.464 135.578 87.136 135.946 88.016L136.474 85.376H138.178L136.378 94.352C136.33 94.608 136.306 94.848 136.306 95.072C136.306 95.584 136.45 95.976 136.738 96.248C137.026 96.52 137.442 96.656 137.986 96.656ZM129.874 96.608C130.914 96.608 131.85 96.36 132.682 95.864C133.514 95.352 134.162 94.648 134.626 93.752C135.106 92.84 135.346 91.824 135.346 90.704C135.346 89.472 134.978 88.512 134.242 87.824C133.522 87.12 132.506 86.768 131.194 86.768C130.154 86.768 129.218 87.024 128.386 87.536C127.554 88.048 126.898 88.76 126.418 89.672C125.954 90.568 125.722 91.576 125.722 92.696C125.722 93.928 126.082 94.888 126.802 95.576C127.538 96.264 128.562 96.608 129.874 96.608ZM150.149 85.28C151.829 85.28 153.165 85.76 154.157 86.72C155.149 87.664 155.645 89.008 155.645 90.752L155.621 91.304L144.869 93.296C144.997 94.384 145.421 95.208 146.141 95.768C146.861 96.328 147.877 96.608 149.189 96.608C150.037 96.608 150.821 96.472 151.541 96.2C152.261 95.912 152.853 95.52 153.317 95.024L154.085 96.248C153.493 96.84 152.757 97.304 151.877 97.64C150.997 97.96 150.053 98.12 149.045 98.12C147.221 98.12 145.781 97.64 144.725 96.68C143.685 95.72 143.165 94.408 143.165 92.744C143.165 91.336 143.461 90.064 144.053 88.928C144.661 87.792 145.493 86.904 146.549 86.264C147.621 85.608 148.821 85.28 150.149 85.28ZM150.101 86.72C149.141 86.72 148.277 86.944 147.509 87.392C146.757 87.84 146.149 88.464 145.685 89.264C145.221 90.064 144.949 90.984 144.869 92.024L154.061 90.296C154.045 89.192 153.677 88.32 152.957 87.68C152.253 87.04 151.301 86.72 150.101 86.72ZM176.252 85.376L173.732 98H172.172L174.164 88.016L167.372 96.464H166.604L163.196 87.92L161.18 98H159.62L162.14 85.376H163.844L167.372 94.472L174.644 85.376H176.252ZM185.445 98.264C184.021 98.264 182.917 97.944 182.133 97.304C181.349 96.648 180.957 95.72 180.957 94.52C180.957 94.072 180.997 93.672 181.077 93.32L182.661 85.376H184.365L183.333 90.632C184.485 89.576 185.869 89.048 187.485 89.048C188.845 89.048 189.885 89.368 190.605 90.008C191.341 90.648 191.709 91.568 191.709 92.768C191.709 93.824 191.445 94.768 190.917 95.6C190.389 96.432 189.645 97.088 188.685 97.568C187.741 98.032 186.661 98.264 185.445 98.264ZM195.333 85.376H197.037L194.517 98H192.813L195.333 85.376ZM185.613 96.968C186.445 96.968 187.189 96.792 187.845 96.44C188.517 96.088 189.037 95.608 189.405 95C189.789 94.376 189.981 93.696 189.981 92.96C189.981 92.112 189.717 91.464 189.189 91.016C188.677 90.552 187.941 90.32 186.981 90.32C186.165 90.32 185.413 90.496 184.725 90.848C184.037 91.184 183.461 91.672 182.997 92.312L182.757 93.464C182.693 93.88 182.661 94.168 182.661 94.328C182.661 95.16 182.917 95.808 183.429 96.272C183.941 96.736 184.669 96.968 185.613 96.968ZM207.36 91.592L211.08 98H209.256L206.256 92.744L201.192 98H199.176L205.536 91.472L202.032 85.376H203.832L206.664 90.32L211.416 85.376H213.384L207.36 91.592ZM229.754 85.28C230.906 85.28 231.922 85.504 232.802 85.952C233.682 86.384 234.362 87.008 234.842 87.824C235.322 88.64 235.562 89.584 235.562 90.656C235.562 92 235.194 93.248 234.458 94.4C233.722 95.536 232.73 96.448 231.482 97.136C230.25 97.808 228.914 98.144 227.474 98.144C226.45 98.144 225.522 97.968 224.69 97.616C223.874 97.264 223.234 96.784 222.77 96.176L223.85 95.288C224.25 95.752 224.77 96.112 225.41 96.368C226.066 96.624 226.77 96.752 227.522 96.752C228.482 96.752 229.386 96.56 230.234 96.176C231.082 95.776 231.802 95.232 232.394 94.544C233.002 93.856 233.426 93.088 233.666 92.24H226.898L227.186 90.944H233.882V90.704C233.882 89.456 233.49 88.472 232.706 87.752C231.922 87.016 230.866 86.648 229.538 86.648C228.754 86.648 228.002 86.776 227.282 87.032C226.562 87.288 225.906 87.664 225.314 88.16L224.474 87.176C225.13 86.584 225.922 86.12 226.85 85.784C227.778 85.448 228.746 85.28 229.754 85.28ZM256.352 85.376L253.832 98H252.272L254.264 88.016L247.472 96.464H246.704L243.296 87.92L241.28 98H239.72L242.24 85.376H243.944L247.472 94.472L254.744 85.376H256.352ZM266.361 98.12C265.209 98.12 264.201 97.904 263.337 97.472C262.473 97.024 261.801 96.4 261.321 95.6C260.857 94.784 260.625 93.84 260.625 92.768C260.625 91.344 260.937 90.064 261.561 88.928C262.185 87.792 263.049 86.904 264.153 86.264C265.273 85.608 266.529 85.28 267.921 85.28C269.681 85.28 271.073 85.76 272.097 86.72C273.137 87.68 273.657 88.976 273.657 90.608C273.657 92.032 273.345 93.32 272.721 94.472C272.097 95.608 271.225 96.504 270.105 97.16C269.001 97.8 267.753 98.12 266.361 98.12ZM266.481 96.608C267.521 96.608 268.457 96.36 269.289 95.864C270.121 95.352 270.769 94.648 271.233 93.752C271.713 92.84 271.953 91.824 271.953 90.704C271.953 89.472 271.585 88.512 270.849 87.824C270.129 87.12 269.113 86.768 267.801 86.768C266.761 86.768 265.825 87.024 264.993 87.536C264.161 88.048 263.505 88.76 263.025 89.672C262.561 90.568 262.329 91.576 262.329 92.696C262.329 93.928 262.689 94.888 263.409 95.576C264.145 96.264 265.169 96.608 266.481 96.608ZM289.342 96.512H291.382L290.47 101.168H288.862L289.486 98H277.942L280.462 85.376H282.166L279.958 96.512H287.638L289.87 85.376H291.574L289.342 96.512ZM309.853 85.376L307.333 98H305.701L306.109 95.984C304.925 97.408 303.301 98.12 301.237 98.12C299.829 98.12 298.725 97.76 297.925 97.04C297.141 96.304 296.749 95.288 296.749 93.992C296.749 93.544 296.797 93.072 296.893 92.576L298.333 85.376H300.037L298.597 92.576C298.517 93.024 298.477 93.4 298.477 93.704C298.477 94.632 298.741 95.344 299.269 95.84C299.813 96.336 300.621 96.584 301.693 96.584C303.037 96.584 304.149 96.208 305.029 95.456C305.909 94.704 306.501 93.608 306.805 92.168L308.149 85.376H309.853ZM327.711 85.376L325.191 98H323.559L323.967 95.984C322.783 97.408 321.159 98.12 319.095 98.12C317.687 98.12 316.583 97.76 315.783 97.04C314.999 96.304 314.607 95.288 314.607 93.992C314.607 93.544 314.655 93.072 314.751 92.576L316.191 85.376H317.895L316.455 92.576C316.375 93.024 316.335 93.4 316.335 93.704C316.335 94.632 316.599 95.344 317.127 95.84C317.671 96.336 318.479 96.584 319.551 96.584C320.895 96.584 322.007 96.208 322.887 95.456C323.767 94.704 324.359 93.608 324.663 92.168L326.007 85.376H327.711ZM322.455 83.552C321.479 83.552 320.711 83.336 320.151 82.904C319.591 82.456 319.311 81.856 319.311 81.104C319.311 80.896 319.335 80.688 319.383 80.48H320.559C320.543 80.576 320.535 80.704 320.535 80.864C320.535 81.376 320.711 81.792 321.063 82.112C321.431 82.416 321.927 82.568 322.551 82.568C323.239 82.568 323.831 82.384 324.327 82.016C324.823 81.632 325.151 81.12 325.311 80.48H326.511C326.303 81.456 325.839 82.216 325.119 82.76C324.415 83.288 323.527 83.552 322.455 83.552ZM332.296 98.12C331.944 98.12 331.648 98 331.408 97.76C331.168 97.52 331.048 97.224 331.048 96.872C331.048 96.488 331.176 96.168 331.432 95.912C331.704 95.64 332.024 95.504 332.392 95.504C332.744 95.504 333.032 95.624 333.256 95.864C333.496 96.104 333.616 96.4 333.616 96.752C333.616 97.136 333.48 97.464 333.208 97.736C332.952 97.992 332.648 98.12 332.296 98.12ZM339.302 98.12C338.95 98.12 338.654 98 338.414 97.76C338.174 97.52 338.054 97.224 338.054 96.872C338.054 96.488 338.182 96.168 338.438 95.912C338.71 95.64 339.03 95.504 339.398 95.504C339.75 95.504 340.038 95.624 340.262 95.864C340.502 96.104 340.622 96.4 340.622 96.752C340.622 97.136 340.486 97.464 340.214 97.736C339.958 97.992 339.654 98.12 339.302 98.12ZM346.308 98.12C345.956 98.12 345.66 98 345.42 97.76C345.18 97.52 345.06 97.224 345.06 96.872C345.06 96.488 345.188 96.168 345.444 95.912C345.716 95.64 346.036 95.504 346.404 95.504C346.756 95.504 347.044 95.624 347.268 95.864C347.508 96.104 347.628 96.4 347.628 96.752C347.628 97.136 347.492 97.464 347.22 97.736C346.964 97.992 346.66 98.12 346.308 98.12Z" fill="white"/>
<path fill-rule="evenodd" clip-rule="evenodd" d="M91.8823 0.685181L92.48 2.91589L101.302 35.8411H103.373L94.7107 3.5136L267.855 49.9076L254.763 63H257.592L270.086 50.5053L271.719 48.8723L269.488 48.2746L94.113 1.2829L91.8823 0.685181ZM172.904 147.687V144.859L141.105 176.658L130.054 135.417V143.144L139.472 178.291L140.069 180.522L141.702 178.889L172.904 147.687Z" fill="#BE2EDD"/>
</svg>
