<svg width="231" height="176" viewBox="0 0 231 176" fill="none" xmlns="http://www.w3.org/2000/svg">
<path d="M51.5128 29.2221C50.4088 28.5141 49.0948 28.1061 47.5708 27.9981L45.2668 39.5001H43.9348L46.2568 27.9801C45.4528 28.0161 44.6848 28.1421 43.9528 28.3581C43.2208 28.5621 42.5668 28.8441 41.9908 29.2041L41.5948 28.1601C42.3148 27.7161 43.1368 27.3801 44.0608 27.1521C44.9968 26.9121 45.9508 26.7921 46.9228 26.7921C48.9988 26.7921 50.7328 27.2541 52.1248 28.1781L51.5128 29.2221ZM56.7435 39.5901C55.8795 39.5901 55.1235 39.4281 54.4755 39.1041C53.8275 38.7681 53.3235 38.3001 52.9635 37.7001C52.6155 37.0881 52.4415 36.3801 52.4415 35.5761C52.4415 34.5081 52.6755 33.5481 53.1435 32.6961C53.6115 31.8441 54.2595 31.1781 55.0875 30.6981C55.9275 30.2061 56.8695 29.9601 57.9135 29.9601C59.2335 29.9601 60.2775 30.3201 61.0455 31.0401C61.8255 31.7601 62.2155 32.7321 62.2155 33.9561C62.2155 35.0241 61.9815 35.9901 61.5135 36.8541C61.0455 37.7061 60.3915 38.3781 59.5515 38.8701C58.7235 39.3501 57.7875 39.5901 56.7435 39.5901ZM56.8335 38.4561C57.6135 38.4561 58.3155 38.2701 58.9395 37.8981C59.5635 37.5141 60.0495 36.9861 60.3975 36.3141C60.7575 35.6301 60.9375 34.8681 60.9375 34.0281C60.9375 33.1041 60.6615 32.3841 60.1095 31.8681C59.5695 31.3401 58.8075 31.0761 57.8235 31.0761C57.0435 31.0761 56.3415 31.2681 55.7175 31.6521C55.0935 32.0361 54.6015 32.5701 54.2415 33.2541C53.8935 33.9261 53.7195 34.6821 53.7195 35.5221C53.7195 36.4461 53.9895 37.1661 54.5295 37.6821C55.0815 38.1981 55.8495 38.4561 56.8335 38.4561ZM75.0247 30.0321L73.1167 39.5001H71.8387L73.4947 31.1661H68.9767L68.4007 33.5061C68.0287 34.9461 67.6687 36.1101 67.3207 36.9981C66.9727 37.8741 66.5767 38.5341 66.1327 38.9781C65.7007 39.4101 65.1907 39.6261 64.6027 39.6261C64.3627 39.6261 64.0507 39.5781 63.6667 39.4821L63.9727 38.3841C64.1887 38.4321 64.3327 38.4561 64.4047 38.4561C65.0167 38.4561 65.5327 38.0541 65.9527 37.2501C66.3847 36.4341 66.8227 35.1441 67.2667 33.3801L68.0947 30.0321H75.0247ZM82.0058 39.6981C80.9138 39.6981 80.0618 39.4521 79.4498 38.9601C78.8498 38.4681 78.5498 37.7721 78.5498 36.8721C78.5498 36.6201 78.5798 36.3261 78.6398 35.9901L79.8278 30.0321H81.1058L80.3138 33.9741C81.1898 33.1821 82.2638 32.7861 83.5358 32.7861C84.5798 32.7861 85.3838 33.0261 85.9478 33.5061C86.5118 33.9861 86.7938 34.6821 86.7938 35.5941C86.7938 36.3741 86.5898 37.0761 86.1818 37.7001C85.7738 38.3241 85.2038 38.8161 84.4718 39.1761C83.7518 39.5241 82.9298 39.6981 82.0058 39.6981ZM82.1138 38.7261C82.7618 38.7261 83.3438 38.5941 83.8598 38.3301C84.3758 38.0661 84.7778 37.7061 85.0658 37.2501C85.3538 36.7941 85.4978 36.2901 85.4978 35.7381C85.4978 35.1021 85.2878 34.6101 84.8678 34.2621C84.4598 33.9141 83.8898 33.7401 83.1578 33.7401C82.5218 33.7401 81.9338 33.8721 81.3938 34.1361C80.8658 34.3881 80.4218 34.7541 80.0618 35.2341L79.8998 36.0981C79.8518 36.3021 79.8278 36.5181 79.8278 36.7461C79.8278 37.3701 80.0258 37.8561 80.4218 38.2041C80.8178 38.5521 81.3818 38.7261 82.1138 38.7261ZM95.3649 34.6941L98.4069 39.5001H96.9489L94.3569 35.2881H92.1249L91.2789 39.5001H90.0009L91.9089 30.0321H93.1869L92.3409 34.1901H94.4469L98.6409 30.0321H100.081L95.3649 34.6941ZM105.869 39.5901C105.005 39.5901 104.249 39.4281 103.601 39.1041C102.953 38.7681 102.449 38.3001 102.089 37.7001C101.741 37.0881 101.567 36.3801 101.567 35.5761C101.567 34.5081 101.801 33.5481 102.269 32.6961C102.737 31.8441 103.385 31.1781 104.213 30.6981C105.053 30.2061 105.995 29.9601 107.039 29.9601C108.359 29.9601 109.403 30.3201 110.171 31.0401C110.951 31.7601 111.341 32.7321 111.341 33.9561C111.341 35.0241 111.107 35.9901 110.639 36.8541C110.171 37.7061 109.517 38.3781 108.677 38.8701C107.849 39.3501 106.913 39.5901 105.869 39.5901ZM105.959 38.4561C106.739 38.4561 107.441 38.2701 108.065 37.8981C108.689 37.5141 109.175 36.9861 109.523 36.3141C109.883 35.6301 110.063 34.8681 110.063 34.0281C110.063 33.1041 109.787 32.3841 109.235 31.8681C108.695 31.3401 107.933 31.0761 106.949 31.0761C106.169 31.0761 105.467 31.2681 104.843 31.6521C104.219 32.0361 103.727 32.5701 103.367 33.2541C103.019 33.9261 102.845 34.6821 102.845 35.5221C102.845 36.4461 103.115 37.1661 103.655 37.6821C104.207 38.1981 104.975 38.4561 105.959 38.4561ZM125.332 39.6441C124.336 39.6441 123.466 39.4641 122.722 39.1041C121.978 38.7441 121.402 38.2401 120.994 37.5921C120.598 36.9321 120.4 36.1701 120.4 35.3061C120.4 34.2381 120.652 33.2781 121.156 32.4261C121.66 31.5741 122.362 30.9021 123.262 30.4101C124.162 29.9181 125.176 29.6721 126.304 29.6721C127.336 29.6721 128.224 29.8881 128.968 30.3201C129.724 30.7401 130.288 31.3401 130.66 32.1201L128.284 33.3081C127.864 32.4321 127.144 31.9941 126.124 31.9941C125.572 31.9941 125.074 32.1321 124.63 32.4081C124.198 32.6721 123.856 33.0441 123.604 33.5241C123.364 34.0041 123.244 34.5501 123.244 35.1621C123.244 35.8221 123.442 36.3501 123.838 36.7461C124.234 37.1301 124.786 37.3221 125.494 37.3221C126.526 37.3221 127.318 36.8901 127.87 36.0261L129.94 37.3221C129.472 38.0541 128.83 38.6241 128.014 39.0321C127.21 39.4401 126.316 39.6441 125.332 39.6441ZM143.812 37.4121C144.136 37.4121 144.406 37.3641 144.622 37.2681L144.334 39.4101C143.854 39.5661 143.344 39.6441 142.804 39.6441C142.108 39.6441 141.532 39.5061 141.076 39.2301C140.632 38.9541 140.326 38.5701 140.158 38.0781C139.306 39.1221 138.166 39.6441 136.738 39.6441C135.982 39.6441 135.286 39.4701 134.65 39.1221C134.014 38.7741 133.504 38.2761 133.12 37.6281C132.748 36.9681 132.562 36.1941 132.562 35.3061C132.562 34.2381 132.796 33.2781 133.264 32.4261C133.744 31.5621 134.392 30.8901 135.208 30.4101C136.024 29.9181 136.924 29.6721 137.908 29.6721C139.396 29.6721 140.446 30.1581 141.058 31.1301L141.31 29.8161H144.118L142.858 36.0981C142.834 36.1941 142.822 36.3261 142.822 36.4941C142.822 36.8061 142.906 37.0401 143.074 37.1961C143.254 37.3401 143.5 37.4121 143.812 37.4121ZM137.602 37.3221C138.154 37.3221 138.646 37.1901 139.078 36.9261C139.51 36.6501 139.846 36.2721 140.086 35.7921C140.326 35.3121 140.446 34.7601 140.446 34.1361C140.446 33.4761 140.248 32.9541 139.852 32.5701C139.468 32.1861 138.928 31.9941 138.232 31.9941C137.68 31.9941 137.188 32.1321 136.756 32.4081C136.324 32.6721 135.988 33.0441 135.748 33.5241C135.508 34.0041 135.388 34.5561 135.388 35.1801C135.388 35.8401 135.58 36.3621 135.964 36.7461C136.36 37.1301 136.906 37.3221 137.602 37.3221ZM161.095 29.8161L159.187 39.5001H156.649L157.765 33.7761L153.985 38.5641H152.797L150.907 33.5781L149.737 39.5001H147.199L149.143 29.8161H152.041L154.021 35.4141L158.431 29.8161H161.095ZM167.763 39.7701C166.455 39.7701 165.453 39.5061 164.757 38.9781C164.073 38.4501 163.731 37.6821 163.731 36.6741C163.731 36.3501 163.767 36.0021 163.839 35.6301L165.009 29.8161H167.817L167.151 33.0921C167.883 32.6361 168.741 32.4081 169.725 32.4081C170.841 32.4081 171.681 32.6601 172.245 33.1641C172.809 33.6681 173.091 34.4061 173.091 35.3781C173.091 36.2661 172.875 37.0401 172.443 37.7001C172.011 38.3601 171.393 38.8701 170.589 39.2301C169.785 39.5901 168.843 39.7701 167.763 39.7701ZM175.287 29.8161H178.095L176.169 39.5001H173.361L175.287 29.8161ZM168.015 37.7901C168.651 37.7901 169.179 37.5981 169.599 37.2141C170.019 36.8181 170.229 36.3141 170.229 35.7021C170.229 35.2461 170.097 34.8981 169.833 34.6581C169.581 34.4181 169.215 34.2981 168.735 34.2981C168.351 34.2981 167.985 34.3761 167.637 34.5321C167.289 34.6881 166.989 34.9101 166.737 35.1981L166.593 35.9901C166.557 36.1701 166.539 36.3321 166.539 36.4761C166.539 36.8961 166.665 37.2201 166.917 37.4481C167.169 37.6761 167.535 37.7901 168.015 37.7901ZM186.164 29.6721C187.544 29.6721 188.654 30.0501 189.494 30.8061C190.346 31.5621 190.772 32.6421 190.772 34.0461C190.772 34.2861 190.766 34.4661 190.754 34.5861L183.284 35.9541C183.536 36.9141 184.346 37.3941 185.714 37.3941C186.218 37.3941 186.692 37.3221 187.136 37.1781C187.58 37.0221 187.964 36.7941 188.288 36.4941L189.458 38.3481C188.918 38.7801 188.3 39.1041 187.604 39.3201C186.908 39.5361 186.176 39.6441 185.408 39.6441C184.412 39.6441 183.536 39.4701 182.78 39.1221C182.036 38.7621 181.46 38.2521 181.052 37.5921C180.656 36.9321 180.458 36.1701 180.458 35.3061C180.458 34.2381 180.698 33.2781 181.178 32.4261C181.658 31.5621 182.33 30.8901 183.194 30.4101C184.07 29.9181 185.06 29.6721 186.164 29.6721ZM186.038 31.7781C185.282 31.7781 184.664 32.0061 184.184 32.4621C183.716 32.9181 183.41 33.5301 183.266 34.2981L188.162 33.3981C188.09 32.8821 187.862 32.4861 187.478 32.2101C187.106 31.9221 186.626 31.7781 186.038 31.7781ZM17.0035 52.0321L15.1315 61.5001H13.9615L14.5915 58.3141H11.6755H11.3335L8.50749 61.5001H7.04949L10.1455 58.1161C8.90949 57.7441 8.29149 56.9221 8.29149 55.6501C8.29149 54.5221 8.71149 53.6401 9.55149 53.0041C10.3915 52.3561 11.5375 52.0321 12.9895 52.0321H17.0035ZM15.6175 53.1481H12.8995C11.8555 53.1481 11.0455 53.3641 10.4695 53.7961C9.89349 54.2281 9.60549 54.8401 9.60549 55.6321C9.60549 56.7961 10.3615 57.3781 11.8735 57.3781H14.7895L15.6175 53.1481ZM26.1911 51.9601C27.5111 51.9601 28.5431 52.3261 29.2871 53.0581C30.0431 53.7781 30.4211 54.7801 30.4211 56.0641C30.4211 57.0961 30.1811 58.0381 29.7011 58.8901C29.2331 59.7301 28.5851 60.3901 27.7571 60.8701C26.9291 61.3501 26.0171 61.5901 25.0211 61.5901C24.1811 61.5901 23.4491 61.4161 22.8251 61.0681C22.2131 60.7201 21.7631 60.2401 21.4751 59.6281L20.4131 64.9921H19.1351L20.7551 56.6041C21.0431 55.1761 21.6611 54.0481 22.6091 53.2201C23.5691 52.3801 24.7631 51.9601 26.1911 51.9601ZM24.9851 60.4561C25.7771 60.4561 26.4851 60.2701 27.1091 59.8981C27.7451 59.5141 28.2371 58.9921 28.5851 58.3321C28.9451 57.6721 29.1251 56.9401 29.1251 56.1361C29.1251 55.1641 28.8611 54.4141 28.3331 53.8861C27.8051 53.3461 27.0671 53.0761 26.1191 53.0761C25.2911 53.0761 24.5591 53.2801 23.9231 53.6881C23.2991 54.0841 22.8131 54.6121 22.4651 55.2721C22.1291 55.9321 21.9611 56.6341 21.9611 57.3781C21.9611 58.3021 22.2191 59.0461 22.7351 59.6101C23.2631 60.1741 24.0131 60.4561 24.9851 60.4561ZM38.9542 56.6941L41.9962 61.5001H40.5382L37.9462 57.2881H35.7142L34.8682 61.5001H33.5902L35.4982 52.0321H36.7762L35.9302 56.1901H38.0362L42.2302 52.0321H43.6702L38.9542 56.6941ZM55.4843 52.0321L53.5943 61.5001H52.3703L52.6763 59.9881C51.7883 61.0561 50.5703 61.5901 49.0223 61.5901C47.9663 61.5901 47.1383 61.3201 46.5383 60.7801C45.9503 60.2281 45.6563 59.4661 45.6563 58.4941C45.6563 58.1581 45.6923 57.8041 45.7643 57.4321L46.8443 52.0321H48.1223L47.0423 57.4321C46.9823 57.7681 46.9523 58.0501 46.9523 58.2781C46.9523 58.9741 47.1503 59.5081 47.5463 59.8801C47.9543 60.2521 48.5603 60.4381 49.3643 60.4381C50.3723 60.4381 51.2063 60.1561 51.8663 59.5921C52.5263 59.0281 52.9703 58.2061 53.1983 57.1261L54.2063 52.0321H55.4843ZM63.8014 51.9601C65.0614 51.9601 66.0634 52.3201 66.8074 53.0401C67.5514 53.7481 67.9234 54.7561 67.9234 56.0641L67.9054 56.4781L59.8414 57.9721C59.9374 58.7881 60.2554 59.4061 60.7954 59.8261C61.3354 60.2461 62.0974 60.4561 63.0814 60.4561C63.7174 60.4561 64.3054 60.3541 64.8454 60.1501C65.3854 59.9341 65.8294 59.6401 66.1774 59.2681L66.7534 60.1861C66.3094 60.6301 65.7574 60.9781 65.0974 61.2301C64.4374 61.4701 63.7294 61.5901 62.9734 61.5901C61.6054 61.5901 60.5254 61.2301 59.7334 60.5101C58.9534 59.7901 58.5634 58.8061 58.5634 57.5581C58.5634 56.5021 58.7854 55.5481 59.2294 54.6961C59.6854 53.8441 60.3094 53.1781 61.1014 52.6981C61.9054 52.2061 62.8054 51.9601 63.8014 51.9601ZM63.7654 53.0401C63.0454 53.0401 62.3974 53.2081 61.8214 53.5441C61.2574 53.8801 60.8014 54.3481 60.4534 54.9481C60.1054 55.5481 59.9014 56.2381 59.8414 57.0181L66.7354 55.7221C66.7234 54.8941 66.4474 54.2401 65.9074 53.7601C65.3794 53.2801 64.6654 53.0401 63.7654 53.0401ZM84.0213 56.6221C85.0653 56.8741 85.5873 57.5161 85.5873 58.5481C85.5873 59.4721 85.2153 60.1981 84.4713 60.7261C83.7393 61.2421 82.7253 61.5001 81.4293 61.5001H77.0553L78.9633 52.0321H83.0853C84.0813 52.0321 84.8373 52.2121 85.3533 52.5721C85.8693 52.9321 86.1273 53.4541 86.1273 54.1381C86.1273 54.7381 85.9413 55.2541 85.5693 55.6861C85.1973 56.1181 84.6813 56.4301 84.0213 56.6221ZM79.3593 56.2441H82.1853C82.9773 56.2441 83.6133 56.0701 84.0933 55.7221C84.5853 55.3741 84.8313 54.9181 84.8313 54.3541C84.8313 53.4781 84.1713 53.0401 82.8513 53.0401H80.0073L79.3593 56.2441ZM81.5013 60.4921C82.3893 60.4921 83.0793 60.3181 83.5713 59.9701C84.0753 59.6221 84.3273 59.1361 84.3273 58.5121C84.3273 58.0441 84.1713 57.7081 83.8593 57.5041C83.5593 57.3001 83.0553 57.1981 82.3473 57.1981H79.1793L78.5133 60.4921H81.5013ZM99.8325 52.0321L97.9425 61.5001H96.6645L98.3025 53.1661H92.3625L90.7245 61.5001H89.4465L91.3365 52.0321H99.8325ZM108.128 51.9601C109.388 51.9601 110.39 52.3201 111.134 53.0401C111.878 53.7481 112.25 54.7561 112.25 56.0641L112.232 56.4781L104.168 57.9721C104.264 58.7881 104.582 59.4061 105.122 59.8261C105.662 60.2461 106.424 60.4561 107.408 60.4561C108.044 60.4561 108.632 60.3541 109.172 60.1501C109.712 59.9341 110.156 59.6401 110.504 59.2681L111.08 60.1861C110.636 60.6301 110.084 60.9781 109.424 61.2301C108.764 61.4701 108.056 61.5901 107.3 61.5901C105.932 61.5901 104.852 61.2301 104.06 60.5101C103.28 59.7901 102.89 58.8061 102.89 57.5581C102.89 56.5021 103.112 55.5481 103.556 54.6961C104.012 53.8441 104.636 53.1781 105.428 52.6981C106.232 52.2061 107.132 51.9601 108.128 51.9601ZM108.092 53.0401C107.372 53.0401 106.724 53.2081 106.148 53.5441C105.584 53.8801 105.128 54.3481 104.78 54.9481C104.432 55.5481 104.228 56.2381 104.168 57.0181L111.062 55.7221C111.05 54.8941 110.774 54.2401 110.234 53.7601C109.706 53.2801 108.992 53.0401 108.092 53.0401ZM124.267 52.0321L122.377 61.5001H121.099L121.873 57.5941C120.721 58.0501 119.629 58.2781 118.597 58.2781C117.601 58.2781 116.821 58.0801 116.257 57.6841C115.705 57.2761 115.429 56.6821 115.429 55.9021C115.429 55.6981 115.459 55.4341 115.519 55.1101L116.131 52.0321H117.409L116.797 55.1281C116.761 55.3081 116.743 55.4821 116.743 55.6501C116.743 56.1781 116.929 56.5741 117.301 56.8381C117.673 57.1021 118.195 57.2341 118.867 57.2341C119.827 57.2341 120.907 56.9821 122.107 56.4781L122.989 52.0321H124.267ZM137.797 60.4921C138.133 60.4921 138.433 60.4381 138.697 60.3301L138.589 61.3921C138.229 61.5241 137.833 61.5901 137.401 61.5901C136.765 61.5901 136.261 61.4341 135.889 61.1221C135.529 60.7981 135.325 60.3601 135.277 59.8081C134.833 60.3721 134.281 60.8101 133.621 61.1221C132.961 61.4341 132.235 61.5901 131.443 61.5901C130.639 61.5901 129.925 61.4281 129.301 61.1041C128.677 60.7801 128.191 60.3181 127.843 59.7181C127.495 59.1061 127.321 58.3921 127.321 57.5761C127.321 56.5081 127.549 55.5481 128.005 54.6961C128.473 53.8441 129.115 53.1781 129.931 52.6981C130.747 52.2061 131.659 51.9601 132.667 51.9601C133.567 51.9601 134.323 52.1401 134.935 52.5001C135.547 52.8481 135.991 53.3521 136.267 54.0121L136.663 52.0321H137.941L136.591 58.7641C136.555 58.9561 136.537 59.1361 136.537 59.3041C136.537 59.6881 136.645 59.9821 136.861 60.1861C137.077 60.3901 137.389 60.4921 137.797 60.4921ZM131.713 60.4561C132.493 60.4561 133.195 60.2701 133.819 59.8981C134.443 59.5141 134.929 58.9861 135.277 58.3141C135.637 57.6301 135.817 56.8681 135.817 56.0281C135.817 55.1041 135.541 54.3841 134.989 53.8681C134.449 53.3401 133.687 53.0761 132.703 53.0761C131.923 53.0761 131.221 53.2681 130.597 53.6521C129.973 54.0361 129.481 54.5701 129.121 55.2541C128.773 55.9261 128.599 56.6821 128.599 57.5221C128.599 58.4461 128.869 59.1661 129.409 59.6821C129.961 60.1981 130.729 60.4561 131.713 60.4561ZM155.271 51.9601C156.339 51.9601 157.161 52.2301 157.736 52.7701C158.325 53.2981 158.619 54.0421 158.619 55.0021C158.619 55.2781 158.577 55.6501 158.493 56.1181L157.413 61.5001H156.135L157.215 56.1001C157.275 55.8241 157.304 55.5301 157.304 55.2181C157.304 54.5461 157.107 54.0301 156.711 53.6701C156.315 53.2981 155.733 53.1121 154.965 53.1121C154.005 53.1121 153.207 53.3821 152.57 53.9221C151.935 54.4501 151.509 55.2361 151.293 56.2801L150.248 61.5001H148.97L150.051 56.1001C150.11 55.7641 150.14 55.4761 150.14 55.2361C150.14 54.5521 149.942 54.0301 149.547 53.6701C149.163 53.2981 148.581 53.1121 147.801 53.1121C146.829 53.1121 146.024 53.3941 145.388 53.9581C144.752 54.5101 144.32 55.3321 144.092 56.4241L143.084 61.5001H141.806L143.678 52.0321H144.902L144.596 53.5441C145.46 52.4881 146.654 51.9601 148.178 51.9601C148.97 51.9601 149.63 52.1221 150.158 52.4461C150.698 52.7701 151.071 53.2381 151.275 53.8501C151.743 53.2261 152.312 52.7581 152.984 52.4461C153.669 52.1221 154.431 51.9601 155.271 51.9601ZM171.826 52.0321L169.918 61.5001H168.64L170.296 53.1661H165.778L165.202 55.5061C164.83 56.9461 164.47 58.1101 164.122 58.9981C163.774 59.8741 163.378 60.5341 162.934 60.9781C162.502 61.4101 161.992 61.6261 161.404 61.6261C161.164 61.6261 160.852 61.5781 160.468 61.4821L160.774 60.3841C160.99 60.4321 161.134 60.4561 161.206 60.4561C161.818 60.4561 162.334 60.0541 162.754 59.2501C163.186 58.4341 163.624 57.1441 164.068 55.3801L164.896 52.0321H171.826ZM180.121 51.9601C181.381 51.9601 182.383 52.3201 183.127 53.0401C183.871 53.7481 184.243 54.7561 184.243 56.0641L184.225 56.4781L176.161 57.9721C176.257 58.7881 176.575 59.4061 177.115 59.8261C177.655 60.2461 178.417 60.4561 179.401 60.4561C180.037 60.4561 180.625 60.3541 181.165 60.1501C181.705 59.9341 182.149 59.6401 182.497 59.2681L183.073 60.1861C182.629 60.6301 182.077 60.9781 181.417 61.2301C180.757 61.4701 180.049 61.5901 179.293 61.5901C177.925 61.5901 176.845 61.2301 176.053 60.5101C175.273 59.7901 174.883 58.8061 174.883 57.5581C174.883 56.5021 175.105 55.5481 175.549 54.6961C176.005 53.8441 176.629 53.1781 177.421 52.6981C178.225 52.2061 179.125 51.9601 180.121 51.9601ZM180.085 53.0401C179.365 53.0401 178.717 53.2081 178.141 53.5441C177.577 53.8801 177.121 54.3481 176.773 54.9481C176.425 55.5481 176.221 56.2381 176.161 57.0181L183.055 55.7221C183.043 54.8941 182.767 54.2401 182.227 53.7601C181.699 53.2801 180.985 53.0401 180.085 53.0401ZM189.114 52.0321H190.392L189.564 56.2261H195.504L196.35 52.0321H197.628L195.738 61.5001H194.46L195.288 57.3241H189.348L188.502 61.5001H187.224L189.114 52.0321ZM210.999 52.0321L209.109 61.5001H207.885L208.191 59.9881C207.303 61.0561 206.085 61.5901 204.537 61.5901C203.481 61.5901 202.653 61.3201 202.053 60.7801C201.465 60.2281 201.171 59.4661 201.171 58.4941C201.171 58.1581 201.207 57.8041 201.279 57.4321L202.359 52.0321H203.637L202.557 57.4321C202.497 57.7681 202.467 58.0501 202.467 58.2781C202.467 58.9741 202.665 59.5081 203.061 59.8801C203.469 60.2521 204.075 60.4381 204.879 60.4381C205.887 60.4381 206.721 60.1561 207.381 59.5921C208.041 59.0281 208.485 58.2061 208.713 57.1261L209.721 52.0321H210.999ZM223.366 52.0321L221.494 61.5001H220.324L220.954 58.3141H218.038H217.696L214.87 61.5001H213.412L216.508 58.1161C215.272 57.7441 214.654 56.9221 214.654 55.6501C214.654 54.5221 215.074 53.6401 215.914 53.0041C216.754 52.3561 217.9 52.0321 219.352 52.0321H223.366ZM221.98 53.1481H219.262C218.218 53.1481 217.408 53.3641 216.832 53.7961C216.256 54.2281 215.968 54.8401 215.968 55.6321C215.968 56.7961 216.724 57.3781 218.236 57.3781H221.152L221.98 53.1481ZM228.845 48.9001H230.357L228.341 57.7201H227.351L228.845 48.9001ZM227.225 61.5901C226.973 61.5901 226.757 61.5061 226.577 61.3381C226.397 61.1581 226.307 60.9481 226.307 60.7081C226.307 60.4321 226.397 60.2041 226.577 60.0241C226.769 59.8321 227.003 59.7361 227.279 59.7361C227.543 59.7361 227.759 59.8201 227.927 59.9881C228.107 60.1561 228.197 60.3601 228.197 60.6001C228.197 60.8761 228.101 61.1101 227.909 61.3021C227.729 61.4941 227.501 61.5901 227.225 61.5901Z" fill="white"/>
<path fill-rule="evenodd" clip-rule="evenodd" d="M37.2588 88.0803L60.0259 68.9185L60.8391 70.8481L39.4301 88.867L162.137 133.322L155.44 95.6689L157.33 94.8725L164.309 134.108L164.713 136.382L162.542 135.595L37.6632 90.354L35.4919 89.5674L37.2588 88.0803ZM143.979 19.8124L141.049 3.33944L140.645 1.06573L138.878 2.55282L122.172 16.6134L122.985 18.543L139.283 4.82653L142.09 20.6089L143.979 19.8124Z" fill="#BE2EDD"/>
</svg>
