<svg width="127" height="425" viewBox="0 0 127 425" fill="none" xmlns="http://www.w3.org/2000/svg">
<path d="M-57.362 424.35C-81.3346 426.118 -107.903 414.197 -114.299 409.839C-120.696 405.481 -138.423 393.863 -143.799 359.119C-149.176 324.375 -164.49 269.258 -178.616 256.575C-192.741 243.891 -226.32 251.673 -226.32 251.673C-226.32 251.673 -239.396 256.302 -243.646 248.994C-247.896 241.687 -244.631 250.279 -247.332 242.657C-247.332 242.657 60.5178 -113.374 118.466 38.7467C147.534 115.055 92.4081 231.873 72.7497 271.839C37.9125 342.664 38.7786 342.168 16.2811 375.267C4.33435 392.844 -23.5482 421.856 -57.362 424.35Z" fill="#F5CBFF" fill-opacity="0.4"/>
</svg>
