<svg width="254" height="419" viewBox="0 0 254 419" fill="none" xmlns="http://www.w3.org/2000/svg">
<path d="M7.08116 73.6184C17.5249 52.126 41.2096 35.247 48.2096 31.927C55.2096 28.607 74.2095 19.1768 107.21 31.927C140.21 44.6772 195.953 59.0707 214.081 53.269C232.209 47.4673 242.209 14.7099 242.209 14.7099C242.209 14.7099 244.709 1.15487 253.209 1.15498C261.709 1.1551 252.581 -0.334303 260.581 1.15475C260.581 1.15475 417.271 443.817 255.581 417.573C174.473 404.408 100.12 298.608 75.0812 261.726C30.7096 196.365 30.7094 197.358 13.0811 161.468C3.72011 142.41 -7.65 103.934 7.08116 73.6184Z" fill="#F5CBFF" fill-opacity="0.4"/>
</svg>
